<svg xmlns="http://www.w3.org/2000/svg" xmlns:xlink="http://www.w3.org/1999/xlink" version="1.1" id="Layer_1" x="0px" y="0px" style="enable-background:new 0 0 500 500;" xml:space="preserve" viewBox="115 93.05 270 313.91">
<g>
	<path d="M244.11,201.11c0.84-0.36,1.53-0.82,2.1-1.35c1.22-1.14,1.87-2.66,1.93-4.54c0.09-3.35-0.4-6.66-1.89-9.69   c-0.01-0.01-0.01-0.02-0.02-0.04c-0.71-1.44-1.82-2.68-2.74-4.01C242.14,189.28,242.74,199.24,244.11,201.11"/>
	<path d="M245.58,207c0.25,0.03,0.49,0.05,0.74,0.07c2.46,0.2,4.18,1.5,5.59,3.37c0.71,0.94,1.28,2,2.08,2.84   c0.41,0.43,0.93,0.78,1.51,1.16h0.88c-1.1-2.75-1.96-5.18-3.14-7.44c-0.83-1.58-2.03-3.16-3.47-4.16   c-1.27-0.89-2.81-0.95-4.17-0.43c-1.2,0.47-2.26,1.4-2.85,2.65C243.23,206.49,244.37,206.85,245.58,207"/>
	<path d="M190.3,308.56v-17.32c-0.02,0.01-0.05,0.02-0.07,0.04c-0.29,0.16-0.58,0.33-0.87,0.52c-0.45,0.29-0.9,0.55-1.36,0.83   c-0.44,0.27-0.89,0.54-1.34,0.79c-1.35,0.78-2.73,1.52-4.11,2.25c-0.77,0.4-1.55,0.8-2.32,1.2c-0.28,0.14-0.57,0.26-0.87,0.37   c-0.43,0.15-0.87,0.26-1.33,0.38c-0.19,0.05-0.39,0.1-0.59,0.15c-0.17,0.04-0.34,0.09-0.51,0.13c-0.17,0.05-0.34,0.09-0.52,0.15   c0.49,0.16,0.96,0.33,1.42,0.52c0.46,0.19,0.91,0.39,1.35,0.61c0.88,0.44,1.71,0.93,2.5,1.46c0.3,0.2,0.59,0.41,0.88,0.63   c0.73,0.54,1.44,1.12,2.12,1.73c0.71,0.63,1.4,1.3,2.08,1.98c0.22,0.23,0.45,0.46,0.67,0.69c0.44,0.46,0.88,0.94,1.32,1.41   C189.25,307.62,189.77,308.12,190.3,308.56"/>
	<path d="M190.3,338.98v-4.46c-1.18-0.11-2.36-0.17-3.53-0.14c-0.37,0.01-0.74,0.02-1.11,0.05c-0.04,0-0.08,0.01-0.12,0.01   c-0.31,0.02-0.62,0.05-0.92,0.08c-0.09,0.01-0.17,0.02-0.26,0.03c-0.25,0.03-0.51,0.07-0.76,0.11c-0.02,0-0.04,0.01-0.06,0.01   c-0.09,0.01-0.17,0.03-0.26,0.04c-0.34,0.06-0.67,0.12-1,0.2c-0.01,0-0.02,0.01-0.03,0.01c-0.35,0.08-0.69,0.16-1.04,0.26   c-0.09,0.02-0.17,0.05-0.26,0.08c-0.25,0.07-0.5,0.15-0.76,0.24c-0.11,0.03-0.22,0.08-0.33,0.11c-0.24,0.09-0.48,0.18-0.71,0.27   c-0.1,0.04-0.2,0.08-0.3,0.12c-0.33,0.14-0.66,0.29-1,0.45c-0.47,0.23-0.93,0.47-1.39,0.72c-0.79,0.44-1.56,0.92-2.3,1.42   c-0.83,0.57-1.63,1.19-2.4,1.85c-1.27,1.1-2.45,2.31-3.53,3.64c-0.21,0.25-0.39,0.51-0.57,0.76c-0.18,0.26-0.34,0.52-0.48,0.78   c-0.41,0.73-0.7,1.49-0.89,2.26c-0.41,1.65-0.35,3.4,0.15,5.22c0.09,0.33,0.2,0.67,0.31,0.99c0.11,0.33,0.24,0.66,0.36,0.99   c0.03,0.09,0.06,0.17,0.1,0.26c0.03,0.08,0.06,0.16,0.09,0.23c0.12,0.33,0.24,0.65,0.35,0.98c0.1,0.29,0.19,0.59,0.27,0.89   c0.02,0.08,0.04,0.15,0.06,0.22c0.11,0.45,0.19,0.91,0.23,1.37c0.01,0.19,0.02,0.39,0.02,0.58c0,0.32-0.03,0.65-0.09,0.98   c-0.04,0.22-0.08,0.44-0.14,0.67c0.17,0.07,0.33,0.13,0.5,0.2c0.28-0.29,0.56-0.58,0.85-0.87c0.11-0.11,0.22-0.22,0.33-0.33   c0.39-0.4,0.77-0.82,1.09-1.26c0.24-0.32,0.44-0.67,0.62-1.04c0.02-0.04,0.04-0.07,0.06-0.11c0.1-0.2,0.18-0.41,0.26-0.62   c0.08-0.21,0.15-0.42,0.21-0.63c0.13-0.43,0.27-0.85,0.42-1.26c0.1-0.26,0.2-0.53,0.3-0.78c0.27-0.66,0.58-1.29,0.92-1.89   c1.02-1.81,2.31-3.38,3.8-4.78c1.48-1.39,3.16-2.6,4.97-3.69c0,0,0,0,0,0c0.38-0.23,0.77-0.45,1.16-0.66   c0.13-0.07,0.27-0.15,0.4-0.23c0,0,0,0,0,0c0,0,0,0,0,0.01c0.08-0.05,0.17-0.1,0.25-0.14c0.2-0.11,0.39-0.22,0.59-0.32   c0.47-0.25,0.95-0.48,1.42-0.71c0.38-0.18,0.76-0.36,1.14-0.53c0.99-0.45,2-0.85,3.02-1.23V338.98"/>
	<path d="M154.44,315.15c3.65,2.79,7.51,5.24,12.11,6.17c0.91,0.18,1.81,0.24,2.69,0.2c1.11-0.06,2.19-0.29,3.24-0.7   c0.57-0.22,1.14-0.49,1.69-0.82c0.31-0.18,0.59-0.4,0.88-0.61c-0.04-0.08-0.07-0.16-0.11-0.24c-0.55,0.19-1.13,0.33-1.66,0.57   c-0.17,0.08-0.32,0.14-0.47,0.2c-1.7,0.68-2.27,0.2-2.45-1.91c-0.01-0.13,0-0.27,0-0.3c-0.68-0.23-1.34-0.45-1.99-0.67   c-0.78-0.26-1.54-0.52-2.3-0.77c0.02-0.1,0.05-0.2,0.07-0.29c0.52,0.09,1.04,0.22,1.57,0.27c0.25,0.03,0.5,0.04,0.74,0.05   c0.33,0.02,0.65,0.02,0.98,0.01c0.54-0.02,1.24,0.14,1.22-0.68c-0.65-0.26-1.29-0.51-1.93-0.77c-2.09-0.83-4.17-1.66-6.24-2.49   c0.04-0.11,0.08-0.22,0.12-0.33c1.6,0.44,3.18,0.92,4.79,1.29c0.57,0.13,1.15,0.23,1.73,0.31c0.52,0.07,1.05,0.13,1.58,0.18   c0.28,0.03,0.72-0.1,0.85-0.3c0.77-1.23,1.76-2.17,2.87-2.93c1.09-0.75,2.3-1.33,3.58-1.86c-1.21-0.11-2.46-0.05-3.61-0.36   c-0.09-0.02-0.17-0.05-0.26-0.07c-1.82-0.51-3.64-1.1-5.35-1.9c-2.36-1.1-4.75-1.58-7.3-1.17c-1.61,0.26-3.21,0.55-4.79,0.92   c-0.23,0.06-0.46,0.11-0.69,0.16c-0.71,0.18-1.45,0.63-1.95,1.17c-0.71,0.77-0.6,1.79,0.01,2.8c-0.01,0.07,0,0.15-0.04,0.19   C152.53,312.31,152.55,313.7,154.44,315.15"/>
	<path d="M190.3,321.19v-5.62c-0.06-0.09-0.11-0.17-0.17-0.26c-1.32-1.95-3.01-3.61-4.94-4.67c-0.3-0.16-0.61-0.3-0.92-0.42   c-1.03-0.39-2.16-0.56-3.3-0.56c-1.72,0.01-3.48,0.44-5,1.21c-1.83,0.92-3.34,2.33-4.02,4.07c-0.45,1.17-0.48,2.51-0.61,3.78   c-0.08,0.77,0.4,0.94,1.05,0.63c0.35-0.16,0.68-0.35,1.03-0.53c0.23-0.12,0.46-0.23,0.69-0.35c1.23-0.67,2.43-0.91,3.61-0.75   c0.4,0.06,0.8,0.15,1.19,0.3c0.48,0.18,0.96,0.43,1.43,0.75c1.45,1,2.84,2.03,4.24,3.05c1.86,1.36,3.73,2.7,5.74,3.93V321.19"/>
	<path d="M173.88,299.85c-0.48-0.01-0.97,0.01-1.48,0.08c-1.88,0.27-3.72,0.96-5.51,1.64c-0.43,0.16-0.84,0.37-1.25,0.6   c-0.78,0.43-1.54,0.93-2.36,1.26c-1.23,0.51-2.55,0.8-3.84,1.18c0,0.03,0,0.06,0,0.09c0.99-0.11,1.98-0.2,2.97-0.35   c2.36-0.35,4.55,0.1,6.69,1.17c1.88,0.95,4.13,1.67,6.42,2.11c1.88,0.37,3.78,0.54,5.54,0.51c0.32,0,0.64,0,0.95-0.02   c-0.07-0.53-0.17-1.05-0.31-1.56c-0.3-1.12-0.75-2.16-1.35-3.07C178.92,301.33,176.69,299.9,173.88,299.85"/>
	<path d="M178.01,326.58c0.19-0.11,0.27-0.58,0.25-0.89c-0.08-1.44-0.45-2.79-1.01-4.1c-0.11-0.27-0.24-0.54-0.37-0.81   c-0.14-0.29-0.28-0.57-0.44-0.86c-0.34,0.38-0.6,0.8-0.79,1.24c-0.24,0.57-0.36,1.17-0.37,1.77c-0.01,1.4,0.61,2.75,1.8,3.46   C177.36,326.55,177.8,326.7,178.01,326.58"/>
	<path d="M242.72,335c0.71-0.2,1.39-0.45,2.03-0.78c2.32-1.2,4.5-2.67,6.7-4.1c0.67-0.44,1.34-0.87,2.02-1.29   c3.9-2.42,7.97-4.2,12.74-3.44c0.23,0.03,0.45,0.06,0.68,0.07c0.2,0.01,0.39,0.01,0.58-0.01c0.16-0.02,0.31-0.04,0.46-0.09   c0.15-0.04,0.29-0.1,0.41-0.18c0.13-0.08,0.25-0.18,0.36-0.3c0.11-0.12,0.21-0.27,0.29-0.44c0.13-0.26,0.23-0.57,0.29-0.95   c-1.15-0.19-2.3-0.39-3.46-0.6c-0.47-0.08-0.93-0.17-1.4-0.25c-2.71-0.49-5.43-0.96-8.18-1.16c-0.33-0.02-0.66-0.03-0.98-0.03   c-0.08,0-0.16,0-0.24,0.01c-0.26,0.01-0.53,0.02-0.78,0.05c-0.06,0.01-0.12,0.01-0.18,0.02c-0.66,0.08-1.3,0.2-1.92,0.39   c-2.59,0.78-4.79,2.5-6.53,4.95c-0.88,1.24-1.71,2.54-2.39,3.9c-0.19,0.37-0.35,0.7-0.5,1V335"/>
	<path d="M245.1,313.8c-0.76,1.62-1.57,3.22-2.38,4.81v6.36c6.62-2.58,9.81-6.94,10.13-14.07c0.06-1.4-0.04-3.02-0.27-4.66   c-0.14-0.11-0.27-0.21-0.41-0.32c-0.62-0.49-1.24-0.98-1.88-1.45c-0.31-0.22-0.62-0.44-0.93-0.66c-0.34-0.24-0.67-0.48-1.01-0.71   c-0.51-0.34-1.03-0.68-1.55-1.01c-0.82-0.52-1.66-1.02-2.5-1.51c-0.52-0.3-1.04-0.59-1.57-0.87v15.82   c1.13-2.26,2.19-4.54,2.94-6.91c0.38-1.18,0.68-2.4,0.88-3.64c0.54-0.21,1.14-0.44,1.74-0.7c-0.12,1.25-0.39,2.46-0.76,3.64   C246.89,309.93,246.01,311.87,245.1,313.8"/>
	<path d="M148.64,164.35c1.12,1.27,2.22,2.52,3.31,3.77c2.96,3.38,5.84,6.69,8.84,9.88c4.07,4.33,8.39,8.43,12.55,12.68   c3.19,3.26,6.82,5.89,10.81,8.17c-0.22-0.42-0.44-0.83-0.65-1.25c-1.24-2.46-2.57-4.88-3.69-7.39c-0.88-1.96-1.36-4.1-0.8-6.24   c0.48-1.78-0.06-3.09-1.24-4.35c-4.63-4.93-9.99-8.59-16.65-10.27c-2.91-0.73-5.8-1.59-8.48-2.93c-1.16-0.58-2.29-1.25-3.36-2.06   C149.23,164.31,149.11,164.35,148.64,164.35"/>
	<path d="M190.26,178.65c-0.95-0.53-1.93-1.02-2.94-1.48c-1.78-0.82-3.29-0.65-4.56,0.76c-0.61,0.68-1.14,1.56-1.39,2.44   c-0.41,1.48-0.53,3.03-0.85,4.53c-0.28,1.34,0.17,2.2,1.23,3.09c1.26,1.05,2.73,2.27,3.24,3.72c1,2.82,2.86,4.4,5.21,5.32   L190.26,178.65"/>
	<path d="M190.3,160.55c-1.11,0.32-2.47,1.15-3.77,2.27c-3.46,2.98-6.47,7.97-3.15,10.37c1.69,1.23,3.56,2.22,5.43,3.17   c0.42,0.21,0.93,0.29,1.45,0.31L190.3,160.55"/>
	<path d="M190.2,198.76c-2.47-1.05-4.58-3.14-6.08-6.22c-0.46-0.95-1.17-1.78-1.77-2.66c-0.13,0.1-0.27,0.2-0.4,0.29   c0.49,1.14,0.99,2.28,1.47,3.42c2.25,5.3,3.09,6.73,6.77,7.39L190.2,198.76"/>
	<path d="M164.79,357.82c-0.14-0.45-0.32-0.95-0.53-1.52c-0.12-0.32-0.24-0.64-0.36-0.97h-7.81v5.26h8.87   c0.01-0.05,0.02-0.11,0.03-0.16c0.04-0.15,0.07-0.29,0.09-0.44c0.02-0.15,0.03-0.29,0.03-0.44c0-0.11-0.01-0.22-0.02-0.34   c-0.03-0.3-0.09-0.61-0.18-0.95C164.88,358.12,164.84,357.97,164.79,357.82"/>
	<path d="M380.88,278.3c-0.76,5.76-2.5,13.03-5.26,21.79c-2.76,8.77-7,17.23-12.75,25.36c-5.76,8.14-13.2,15.16-22.33,21.04   c-6.16,3.97-13.37,6.6-21.63,7.89c-3.99,0.63-8.22,0.94-12.71,0.94h-8.64c0.53-1.12,1.03-2.27,1.51-3.43   c2.14-5.2,3.75-10.55,4.84-16.02c1.15-5.72,1.72-11.59,1.72-17.61c0-12.3-2.26-22.5-6.77-30.62c0,0,0-0.01-0.01-0.01   c-0.17-0.31-0.35-0.63-0.53-0.94c-0.45-0.77-0.92-1.52-1.39-2.26c0-0.01,0-0.01-0.01-0.02c-1.38-2.16-2.84-4.19-4.36-6.12   c-1.71-2.15-3.5-4.16-5.39-6.02c-2.05-2.01-4.21-3.84-6.48-5.5c-6.88-5.01-13.95-8.77-21.2-11.28c-1.66-0.57-3.25-1.12-4.77-1.63   c-5.16-1.76-9.57-3.22-13.24-4.38l-6.19-1.95l-37.52-11.8l-1.7-0.53c-5.97-1.83-11.88-3.94-17.74-6.3   c-0.53-0.21-1.06-0.43-1.58-0.65c-1.85-0.76-3.63-1.58-5.37-2.44c-5.07,4.59-11.16,8.49-15.53,9.67c-0.66,1.03-1.68,2-3.27,2.59   c-0.35,0.13-0.72,0.19-1.08,0.19c-0.71,0-1.4-0.24-1.96-0.7c-1.3-0.99-1.35-2.3-1.31-2.82c0.06-0.94,0.16-1.9,0.25-2.83   c0.18-1.89,0.35-3.68,0.3-5.4c-0.18-5.23,1.33-9.82,4.5-13.68c-2.41-2.61-4.54-5.48-6.35-8.64c-3.25-5.63-4.88-12.46-4.88-20.48   c0-10.01,2.06-18.28,6.19-24.8c1.19-1.88,2.48-3.64,3.85-5.31c-2.4-1.12-4.81-2.51-7.27-4.22c-0.05,0.05-0.1,0.09-0.14,0.13   c-7.26,7.02-12.89,15.35-16.88,24.99c-4,9.64-6.01,20.1-6.01,31.38c0,17.29,5.19,31.07,15.58,41.34   c9.51,9.41,23.17,17.15,40.99,23.18c1.62,0.56,3.29,1.1,4.98,1.62l14.45,4.41v78.88h-18.57c-0.13,0.1-0.27,0.19-0.4,0.28   c-0.01,0.01-0.01,0.01-0.02,0.01l-3.47,2.55c-0.1,0.08-0.22,0.15-0.33,0.21c-0.11,0.06-0.23,0.11-0.35,0.16   c-0.05,0.02-0.09,0.04-0.14,0.06c-0.22,0.54-0.48,1.05-0.77,1.52c-0.1,0.16-0.2,0.32-0.3,0.47h63.63   c-0.41-0.23-0.83-0.46-1.24-0.69c-2.83-1.57-4.55-4.18-4.71-7.14c-0.16-2.78,0.07-5.45,0.37-8.4c0.27-2.7,2.08-3.97,3.83-4.06   v-52.11c1.36,0.53,2.74,1.11,4.14,1.72c0.97,0.42,1.96,0.87,2.96,1.32c0.26,0.12,0.52,0.24,0.79,0.36   c2.22,1.04,4.38,2.21,6.48,3.49c1.35,0.82,2.67,1.69,3.97,2.6c0.37,0.26,0.73,0.52,1.1,0.79c0.66,0.49,1.31,0.99,1.96,1.51   c0.39,0.3,0.77,0.62,1.16,0.94c0.55,0.46,1.11,0.91,1.66,1.39c5,4.39,9.13,9.71,12.39,15.97c2.62,5.06,4.19,10.92,4.68,17.61   c0.13,1.6,0.19,3.25,0.19,4.94c0,4.52-0.56,9.36-1.69,14.52c-0.38,1.7-0.81,3.44-1.31,5.21c-0.01,0.02-0.01,0.03-0.01,0.05   c-1.96,6.97-5.36,13.45-10.17,19.46c-0.11,0.14-0.21,0.27-0.32,0.4c-5.01,6.14-11.76,11.22-20.26,15.23   c-8.51,4.01-19.39,6.01-32.65,6.01c-4.75,0-9.82-0.13-15.2-0.37c-5.38-0.25-11.01-1.13-16.88-2.64c-5.89-1.5-11.7-3.88-17.46-7.13   c-5.75-3.25-11.26-7.9-16.51-13.91c-5.26-6.01-10.08-13.65-14.45-22.92c-4.38-9.26-7.95-20.67-10.69-34.2H115v80.8h5.63   c1-2.5,2.19-4.51,3.57-6.02c1.37-1.5,3.94-2.25,7.69-2.25c4.25,0,9.26,1,15.02,3.01c5.75,2.01,11.12,3.75,16.13,5.26   c4.25,1.25,8.13,2.19,11.63,2.82c3.5,0.63,7,1.19,10.51,1.69c3.5,0.49,7.25,0.81,11.26,0.94c4,0.13,8.63,0.19,13.89,0.19   c14.76,0,28.02-2.45,39.78-7.33c11.75-4.88,21.77-11.4,30.02-19.54c0.01-0.01,0.02-0.02,0.03-0.03   c5.92-5.83,10.84-12.33,14.76-19.46H385V278.3H380.88"/>
	<path d="M164.79,357.82c0.05,0.15,0.09,0.29,0.13,0.44"/>
	<path d="M174.97,358.39c-0.11,0.06-0.23,0.11-0.35,0.16"/>
	<path d="M197.75,127.19v88.15c1.34,0.45,2.68,0.88,4.02,1.29c0.02,0.01,20.04,6.3,33.51,10.54h30.39c0.55,0,1.09,0.01,1.63,0.02   c4.52,0.1,8.6,0.6,12.23,1.53c3,0.77,5.7,1.81,8.1,3.15c5.63,3.14,10.13,7.33,13.51,12.59c3.37,5.27,6,11.28,7.87,18.04   c1.85,6.65,3.63,13.54,5.35,20.68c0.03,0.12,0.06,0.24,0.09,0.36h4.13V166.66h-4.13c-2.76,11.27-5.57,20.48-8.44,27.62   c-2.08,5.16-4.48,9.53-7.22,13.11c-1.05,1.38-2.15,2.65-3.29,3.8c-4.12,4.14-9.07,6.95-14.83,8.46   c-5.65,1.47-12.51,2.22-20.58,2.25h-24.82v-82.29c6.85,3.67,12.79,8.3,17.83,13.88c0.55,0.6,1.08,1.22,1.6,1.84   c0.21,0.25,0.41,0.5,0.61,0.75c0.01,0,0.02,0,0.02,0c1.72,0.26,3.5,0.54,5.29,0.96c2.51,0.6,4.32,2.56,4.84,5.24   c0.02,0.09,0.04,0.17,0.06,0.25c0.04,0.16,0.09,0.36,0.13,0.57c1.38-7.15,5.37-13.03,11.97-17.55c0.51-0.35,1-0.56,1.47-0.77   c0.08-0.04,0.17-0.08,0.27-0.12v-10.91h-5.25c-2,3.51-3.57,5.7-4.69,6.58c-1.12,0.88-3.32,1.32-6.56,1.32   c-2.76,0-5.48-0.47-8.16-1.41c-0.72-0.25-1.44-0.54-2.16-0.85c-3.38-1.5-7.2-3.2-11.45-5.07c-1.79-0.79-3.73-1.55-5.81-2.27V98.31   h62.3c10.26,0,19.01,1.25,26.27,3.75c7.25,2.51,13.51,6.33,18.77,11.47c5.25,5.13,9.76,11.4,13.51,18.78   c3.74,7.39,7.25,15.98,10.51,25.75h4.13V93.05H156.09v5.26h41.66V127.19"/>
	<path d="M272.45,190.78c0.28,1.04,0.55,2.08,0.8,3.12h0.01c0.62,2.6,1.16,5.23,1.6,7.88h4.5v-8.19c-1.96-0.03-3.82-0.65-5.68-1.9   C273.23,191.38,272.82,191.07,272.45,190.78"/>
	<path d="M261.5,326.71c-0.47,0.08-0.94,0.19-1.41,0.32c-0.7,0.2-1.39,0.46-2.07,0.79c-0.45,0.22-0.91,0.47-1.35,0.75   c-0.22,0.14-0.45,0.29-0.67,0.45c-0.66,0.47-1.32,0.92-2,1.37c-0.17,0.11-0.34,0.22-0.5,0.33c-0.66,0.43-1.32,0.85-1.98,1.26   c-2.57,1.59-5.2,3.1-7.79,4.69c3.04,2.23,5.75,3.31,8.21,3.45c1.04,0.06,2.04-0.05,3.01-0.31c0.01,0,0.01,0,0.02-0.01   c0.18-0.05,0.36-0.1,0.54-0.17c0.02-0.01,0.03-0.01,0.05-0.02c0.17-0.06,0.34-0.12,0.5-0.19c0.02-0.01,0.04-0.01,0.06-0.02   c0.17-0.07,0.34-0.15,0.52-0.23c0.01,0,0.02-0.01,0.02-0.01c0.54-0.26,1.07-0.57,1.59-0.94c0.04-0.03,0.08-0.05,0.11-0.08   c0.13-0.09,0.25-0.18,0.38-0.28c0.05-0.04,0.1-0.08,0.16-0.12c0.11-0.09,0.22-0.18,0.34-0.27c0.06-0.05,0.11-0.09,0.17-0.14   c0.11-0.09,0.22-0.19,0.32-0.28c0.06-0.05,0.11-0.1,0.17-0.15c0.11-0.1,0.22-0.21,0.33-0.32c0.05-0.05,0.1-0.09,0.15-0.14   c0.16-0.16,0.32-0.32,0.47-0.48c0.6-0.63,1.18-1.29,1.71-1.98c0.18-0.23,0.35-0.46,0.52-0.7c0.37-0.52,0.73-1.05,1.09-1.58   c1.04-1.52,2.08-3.09,3.2-4.76c0.05-0.08,0.1-0.15,0.16-0.24c-0.08-0.01-0.16-0.02-0.24-0.03   C265.26,326.43,263.34,326.39,261.5,326.71"/>
	<path d="M235.27,343.43c-0.13,0.03-0.25,0.1-0.36,0.21c-0.19,0.2-0.33,0.54-0.38,1.03c-0.26,2.63-0.5,5.29-0.36,7.92   c0.11,1.98,1.31,3.59,3.12,4.6c2.03,1.13,4.07,2.26,6.14,3.41c1.13,0.63,2.28,1.26,3.44,1.91c0.55,0.31,1.1,0.61,1.67,0.92   c0.06-0.99,0.05-1.94-0.03-2.83c-0.17-1.94-0.66-3.68-1.37-5.26c-1.5-3.32-3.99-5.98-6.69-8.53c-1.13-1.06-2.45-1.9-3.69-2.84   C236.21,343.54,235.68,343.33,235.27,343.43"/>
	<path d="M239.18,341.88c-0.55,0.08-1.03,0.23-1.44,0.47c1.65,1.72,3.31,3.45,4.98,5.19c0.11,0.11,0.22,0.23,0.33,0.34   c0.69,0.72,1.39,1.45,2.08,2.18c1.52,1.6,2.63,3.36,3.4,5.28c0.66,1.65,1.07,3.41,1.27,5.26c0.03,0.23,0.05,0.46,0.07,0.69   c0.16,2.01,0.27,2.48,1.71,2.82c0.45,0.1,1.02,0.2,1.77,0.32c-0.08-1.42-0.09-2.85-0.12-4.27c-0.03-1.61-0.07-3.22-0.21-4.81   c-0.21-2.44-0.66-4.85-1.66-7.19c-0.04-0.09-0.08-0.18-0.13-0.27c-1.33-2.69-5.11-4.92-8.52-5.73   C241.43,341.84,240.2,341.73,239.18,341.88"/>
	<path d="M185.03,214.77c1.69,0.16,3.38,0.37,5.13,0.58l0.01-4.89c-0.76-1.36-2.01-2.19-3.53-2.78c-9.17-3.59-17.69-2.88-25.6,2.44   c-0.73,0.49-1.46,1.01-2.18,1.58c-1.32,1.05-2.46,2.18-3.42,3.38c-2.51,3.15-3.74,6.87-3.59,11.35c0.02,0.58,0.01,1.16,0,1.74   c-0.05,1.52-0.21,3.05-0.35,4.57c-0.07,0.75-0.14,1.5-0.19,2.25c0,0.06,0.12,0.12,0.18,0.18c0.33-0.13,0.61-0.28,0.86-0.46   c1.14-0.8,1.5-2.08,1.7-3.53c0.71-5.11,2.95-9.14,6.48-11.91c2.03-1.59,4.48-2.77,7.32-3.49c0.2-0.05,0.4-0.09,0.6-0.14   c2.72-0.65,5.45-1.01,8.19-1.13C179.43,214.39,182.23,214.5,185.03,214.77"/>
	<path d="M162.02,220.33c-4.81,3.09-8.18,7.86-7.4,12.27c0.76-0.17,1.6-0.46,2.49-0.84c3.38-1.44,7.58-4.26,11.3-7.49   c2.05-1.77,3.95-3.67,5.49-5.53c0.28-0.33,0.54-0.66,0.8-0.99c0.14-0.18,0.28-0.37,0.41-0.55c-1.39-0.25-2.82-0.27-4.26-0.11   C167.77,217.43,164.67,218.63,162.02,220.33"/>
	<path d="M146.84,137.88c0.4,0.37,0.81,0.72,1.08,1.17c0.14,0.24,0.29,0.45,0.45,0.62c0.95,1.07,2.1,0.95,3.54,0.35   c2.82-1.18,5.72-1.89,8.68-2.21c2.02-0.22,4.07-0.26,6.13-0.13c0.13,0.01,0.25,0.01,0.37,0.02c1.06,0.08,1.63-0.21,1.68-1.39   c0-0.03,0.01-0.05,0.01-0.09c-0.56-0.2-1.12-0.4-1.67-0.6c-0.42-0.15-0.85-0.32-1.27-0.48c-2.9-1.12-5.69-2.4-8.24-4.2   c-0.43-0.3-0.86-0.62-1.28-0.95c0.56,0.24,1.12,0.49,1.68,0.73c1.23,0.54,2.46,1.09,3.72,1.55c1.98,0.72,3.99,1.35,6.02,1.92   c0.04,0.01,0.09,0.03,0.13,0.04c0.07,0.02,0.14,0.04,0.21,0.06c0.97,0.27,1.42,0.37,1.84,0.14c0.36-0.19,0.69-0.62,1.3-1.39   c-0.09-0.03-0.19-0.07-0.28-0.1c-0.02-0.01-0.04-0.01-0.06-0.02c-0.57-0.2-1.14-0.41-1.71-0.61c-0.42-0.15-0.83-0.3-1.24-0.47   c-0.05-0.02-0.1-0.04-0.15-0.06c-2.01-0.83-3.67-2-5.05-3.41c-1.73-1.77-3.02-3.94-4-6.39c-0.89-2.22-0.92-2.33-3.2-2.1   c-0.06,0.01-0.12,0.01-0.18,0.02c-1.45,0.15-2.91,0.43-4.33,0.81c-6.86,1.84-10.17,11.12-4.51,16.9   C146.63,137.68,146.73,137.78,146.84,137.88"/>
	<path d="M164.21,105.93c-0.16-0.07-0.34-0.12-0.52-0.17c-0.69-0.18-1.47-0.22-2.14-0.1c-0.12,0.02-0.22,0.06-0.33,0.1   c-0.98,0.35-1.5,1.31-1.62,2.56c-0.06,0.05-0.1,0.14-0.17,0.16c-2.7,0.68-3.66,2-2.88,4.69c0.35,1.2,0.72,2.39,1.13,3.56   c1.37,3.9,3.17,7.59,6.01,10.74c0.09,0.1,0.19,0.19,0.29,0.29c0.84,0.87,1.76,1.6,2.76,2.17c1.12,0.65,2.33,1.11,3.63,1.38   c0.48,0.1,0.96,0.19,1.46,0.24c0.2,0.02,0.4,0.03,0.6,0.03c0.22,0,0.44,0,0.66,0.01c0.02-0.1,0.04-0.21,0.06-0.31   c-0.14-0.05-0.27-0.09-0.41-0.14c-0.45-0.16-0.89-0.32-1.35-0.43c-0.07-0.02-0.14-0.04-0.21-0.05c-1.78-0.37-2.51-0.86-2.37-1.86   c0.07-0.47,0.34-1.06,0.79-1.8c0.08-0.14,0.18-0.26,0.21-0.29c-0.25-0.36-0.5-0.71-0.74-1.06c-0.12-0.17-0.24-0.34-0.35-0.51   c-0.66-0.95-1.31-1.88-1.96-2.8c0.09-0.07,0.18-0.15,0.27-0.23c0.43,0.45,0.84,0.94,1.3,1.36c0.35,0.32,0.72,0.62,1.1,0.91   c0.16,0.12,0.32,0.25,0.48,0.36c0.18,0.12,0.36,0.28,0.54,0.4c0.35,0.23,0.72,0.33,1.08-0.18c-0.03-0.05-0.07-0.11-0.1-0.16   c-0.3-0.48-0.6-0.96-0.9-1.45c-1.49-2.41-2.97-4.8-4.45-7.18c0.11-0.07,0.23-0.15,0.35-0.23c1.2,1.53,2.37,3.09,3.63,4.57   c0.57,0.66,1.19,1.28,1.83,1.88c0.32,0.3,0.64,0.59,0.96,0.89c0.24,0.22,0.75,0.41,1.02,0.31c1.85-0.72,3.68-0.87,5.53-0.71   c1.29,0.11,2.59,0.37,3.9,0.7c-0.93-0.82-1.96-1.56-2.79-2.46c-0.13-0.13-0.26-0.26-0.37-0.41c-1.44-1.83-2.82-3.75-3.93-5.79   c-1.46-2.69-3.39-4.81-6.08-6.2c-1.53-0.79-3.08-1.56-4.66-2.25C165.06,106.29,164.64,106.1,164.21,105.93"/>
	<path d="M167,149.34c-2.48,2.34-5.16,4.46-7.83,6.58c-0.22,0.17-0.44,0.35-0.66,0.53c-1.11,0.88-1.44,1.48-0.76,2   c0.2,0.16,0.49,0.31,0.89,0.47c1.75,0.69,3.62,1.25,5.49,1.44c3.56,0.37,7.06-0.21,10.09-1.16c2.55-0.87,4.63-1.76,6.28-3.41   c1.01-1,1.58-2.1,1.72-3.32c0.09-0.77,0-1.59-0.26-2.47c-0.64-2.15-1.23-4.31-1.83-6.47c-0.43-1.56-0.86-3.12-1.32-4.66   c-0.25-0.83-0.53-1.66-0.82-2.48c-0.3-0.82-0.61-1.64-0.94-2.45c-0.06-0.15-0.12-0.3-0.18-0.45c-0.13-0.32-0.5-0.55-0.85-0.79   c-0.12-0.08-0.23-0.16-0.33-0.24c-0.29,0.4-0.68,0.77-0.84,1.22c-0.05,0.16-0.1,0.32-0.16,0.48c-0.01,0.05-0.03,0.09-0.05,0.14   c-0.28,0.86-0.52,1.73-0.69,2.61c-0.07,0.37-0.17,0.72-0.25,1.07c-0.29,1.21-0.68,2.37-1.15,3.48c-0.29,0.69-0.61,1.37-0.97,2.03   C170.38,145.65,168.85,147.6,167,149.34"/>
	<path d="M184.99,126.2c-0.33-0.22-0.68-0.43-1.03-0.62c-0.98-0.53-2.04-0.93-3.11-1.2c-2.68-0.68-5.49-0.49-7.6,0.84   c-1.24,0.78-2.2,2.03-3.22,3.14c-0.29,0.32-0.36,0.6-0.27,0.82c0.1,0.24,0.39,0.42,0.82,0.5c0.37,0.08,0.75,0.14,1.12,0.2   c0.37,0.06,0.74,0.12,1.12,0.17c0.09,0.01,0.17,0.04,0.26,0.05c0.16,0.03,0.31,0.06,0.46,0.09c0.89,0.2,1.67,0.53,2.35,0.98   c0.12,0.08,0.25,0.16,0.36,0.25c0.25,0.2,0.49,0.41,0.71,0.65c0.56,0.6,1.01,1.34,1.35,2.2c0.06,0.14,0.12,0.27,0.17,0.42   c0.96,2.8,1.8,5.64,2.72,8.45c0.62,1.91,1.29,3.81,2.06,5.66c0.15,0.36,0.41,0.69,0.65,1c0.41,0.54,0.83,0.72,1.28,0.51   c0.19-0.09,0.38-0.23,0.58-0.45c4.42-4.9,5.74-13.47,2.98-19.46c-0.25-0.54-0.57-1.04-0.92-1.53   C187.08,127.85,186.11,126.93,184.99,126.2"/>
	<path d="M169.18,141.33c-0.16-0.21-0.35-0.41-0.38-0.64c0-0.02-0.01-0.04-0.01-0.06c-0.02-0.12-0.04-0.22-0.07-0.33   c-0.29-1-1.04-1.21-1.93-1.3c-0.19-0.02-0.38-0.03-0.58-0.05c-2.9-0.21-5.74,0.01-8.55,0.56c-1.21,0.24-2.42,0.54-3.62,0.91   c-1.96,0.94-3.94,1.83-5.89,2.79c-0.48,0.24-0.95,0.47-1.42,0.71c-1.77,0.91-1.84,1.77-0.24,2.87c0.22,0.15,0.44,0.29,0.66,0.44   c2.24,1.51,4.59,2.85,7.06,3.93c1.15,0.5,2.32,0.96,3.53,1.34c0.19,0.06,0.37,0.1,0.55,0.14c1.83,0.43,3.52,0.05,5.02-1.26   c2.61-2.3,4.86-4.88,6.19-8.13c0.01-0.02,0.02-0.05,0.03-0.07c0.17-0.41,0-1.01-0.13-1.49   C169.35,141.58,169.27,141.45,169.18,141.33"/>
	<path d="M184.13,111.35c-1.96-1.06-4.18-1.69-6.35-2.31c-0.8-0.23-1.65-0.32-2.49-0.41c-0.75-0.09-1.5-0.17-2.22-0.35   c-1.52-0.38-2.97-1.03-4.45-1.57c-0.02,0.02-0.04,0.05-0.06,0.08c1.01,0.59,2.02,1.19,3.05,1.75c2.48,1.32,4.24,3.27,5.5,5.78   c1.27,2.51,3.18,5.07,5.35,7.29c1.17,1.2,2.42,2.3,3.67,3.23c0.45,0.34,0.91,0.66,1.36,0.95c0.21-0.38,0.4-0.76,0.57-1.15   C190.27,119.73,189.32,114.14,184.13,111.35"/>
	<path d="M170.04,139.38c0.02,0.07,0.05,0.15,0.07,0.22c0.01,0.01,0.01,0.02,0.01,0.03c0.03,0.09,0.08,0.18,0.13,0.26   c0.16,0.27,0.39,0.53,0.6,0.56c0.26,0.03,0.66-0.37,0.86-0.67c0.03-0.05,0.06-0.09,0.08-0.14c0.24-0.37,0.45-0.75,0.64-1.13   c0.57-1.14,0.97-2.34,1.25-3.59c0.02-0.1,0.04-0.2,0.06-0.3c0.07-0.34,0.13-0.68,0.19-1.02c0.03-0.18,0.06-0.36,0.09-0.54   c-0.28,0.06-0.56,0.15-0.82,0.25c-0.74,0.29-1.39,0.72-1.91,1.26c-0.01,0.01-0.02,0.02-0.03,0.04c-0.63,0.66-1.08,1.45-1.3,2.3   C169.75,137.73,169.76,138.58,170.04,139.38"/>
	<path d="M187.12,343.56c-0.58,0.25-1.15,0.52-1.72,0.8c-0.5,0.25-0.99,0.52-1.48,0.79c0,0-0.01,0-0.01,0   c-0.13,0.07-0.25,0.13-0.38,0.2c-1.03,0.59-2.02,1.21-2.96,1.89c-0.28,0.21-0.56,0.42-0.83,0.64c-0.29,0.22-0.56,0.45-0.84,0.68   c-0.62,0.52-1.21,1.06-1.77,1.63c-0.28,0.28-0.54,0.56-0.8,0.85c-0.78,0.87-1.5,1.79-2.15,2.79c-0.22,0.33-0.43,0.67-0.63,1.02   c-0.02,0.03-0.03,0.07-0.05,0.1c-0.07,0.13-0.13,0.26-0.19,0.38c-0.02,0.04-0.04,0.08-0.06,0.13c0.07,0.07,0.14,0.14,0.21,0.22   c0.15-0.11,0.31-0.23,0.46-0.34c1-0.73,1.99-1.47,2.99-2.2c0.01,0,0.01-0.01,0.02-0.01c0.41-0.3,0.82-0.59,1.23-0.88   c0.07-0.05,0.14-0.09,0.2-0.13c0.35-0.24,0.7-0.47,1.05-0.69c0.05-0.03,0.1-0.06,0.16-0.1c0.37-0.23,0.74-0.46,1.12-0.68   c0.02-0.01,0.05-0.02,0.07-0.04c0.41-0.24,0.81-0.47,1.23-0.69c0,0,0,0,0.01,0c0.64-0.34,1.28-0.66,1.94-0.96   c0.84-0.39,1.69-0.75,2.55-1.07c0.29-0.11,0.57-0.22,0.86-0.32c0.97-0.34,1.96-0.63,2.96-0.88v-4.4c-1.01,0.37-2.02,0.77-3.01,1.2   v0C187.24,343.51,187.18,343.54,187.12,343.56"/>
	<path d="M268.65,181.45c0.01-0.01,0.01-0.02,0.02-0.03c0.11-0.23,0.23-0.44,0.35-0.64c0.04-0.07,0.09-0.15,0.13-0.22   c0.88-1.37,2.07-2.25,3.61-2.78c0.42-0.15,0.86-0.27,1.34-0.37c1.45-0.28,3.01-1.17,4.02-2.26c0.22-0.24,0.45-0.49,0.66-0.75   c0.2-0.24,0.4-0.49,0.59-0.73c3.1-4.01,5.31-9.66,3.77-14.45c-1.17-3.61-0.96-8.05-2.04-11.92c-0.8,0.38-1.3,0.55-1.72,0.83   c0,0-0.01,0-0.01,0c-8.36,5.73-11.91,13.77-11.03,23.75c0.01,0.12,0.02,0.24,0.03,0.37c0.17,2.07,0.23,4.08-0.09,6.05   c-0.19,1.14-0.5,2.27-1,3.38c-0.02,0.05-0.04,0.1-0.05,0.15c-0.06,0.29-0.01,0.7-0.05,1.48   C267.93,182.37,268.4,181.96,268.65,181.45"/>
	<path d="M284.02,189.18c0.89-0.45,1.78-0.95,2.79-1.16c0.9-0.19,1.9-0.14,3.08,0.39c-1.13-2.36-2.08-4.45-3.08-6.46   c-0.21-0.41-0.41-0.83-0.62-1.24c-1.13-2.19-2.9-3.52-5.5-3.41c-0.13,0.01-0.25,0.03-0.37,0.03c-0.33,0.03-0.64,0.07-0.95,0.12   c-1.97,0.35-3.59,1.31-4.77,3.02c-0.14,0.2-0.28,0.41-0.41,0.63c-0.38,0.68-0.67,1.43-1.11,2.38c-0.8,0.22-1.68,0.5-2.58,0.7   c-0.02,0-0.04,0.01-0.06,0.01c-0.08,0.02-0.17,0.04-0.25,0.06c-0.86,0.17-1.68,0.38-2.45,0.68c-0.7,0.27-1.37,0.62-2,1.06   c-0.02,0.02-0.05,0.03-0.07,0.05c-0.51,0.35-1,0.76-1.45,1.25c-0.15,0.15-0.3,0.3-0.46,0.44c-0.24,0.22-0.49,0.42-0.74,0.62   c-1.05,0.81-2.24,1.5-3.32,2.28c-0.28,0.39-0.58,0.74-0.9,1.08c-1.24,1.33-2.72,2.38-4.28,3.37c-1.68,1.06-3.44,2.04-5.08,3.24   c1.28,1.1,2.1,0.48,2.87-0.02c1.01-0.66,2.01-1.32,3.01-1.98c1.19-0.79,2.38-1.59,3.54-2.42c1.88-1.33,3.7-2.76,5.55-4.12   c1.18-0.87,2.38-1.72,3.61-2.51c1.32-0.84,2.29-1.07,3.13-0.93c1.45,0.24,2.5,1.57,4.27,2.76c1.38,0.93,2.66,1.34,3.95,1.37   C280.86,190.51,282.36,190.01,284.02,189.18"/>
	<path d="M262.36,184.78c0.16,0.07,0.32,0.15,0.49,0.22c0.47,0.19,0.95,0.36,1.47,0.51c0.06-0.21,0.13-0.41,0.19-0.62   c0.09-0.28,0.18-0.56,0.27-0.85c0.15-0.45,0.29-0.9,0.44-1.35c0.47-1.46,0.92-2.92,1.19-4.42c0.25-1.37,0.18-3.28-0.6-4.28   c-0.17-0.22-0.32-0.44-0.47-0.67c-1.37-1.97-2.15-4.06-2.48-6.31c-0.13-0.92-0.2-1.87-0.19-2.85c0-0.43-0.16-0.86-0.25-1.3   c-0.28-1.44-1.17-2.49-2.51-2.81c-0.59-0.14-1.19-0.26-1.79-0.38c-1.48-0.28-2.97-0.49-4.44-0.72c-0.3-0.05-0.6-0.09-0.9-0.14   c-0.74,1.51-1.17,2.98-1.31,4.41c-0.16,1.59,0.02,3.14,0.55,4.65c1.33,3.8,3.03,7.48,4.64,11.18   C257.8,181.72,259.68,183.58,262.36,184.78"/>
	<path d="M250.59,159.07c-0.36-0.16-0.72-0.34-1.09-0.52c-1.12-0.55-2.27-1.14-3.43-1.66c-1.08-0.49-2.17-0.93-3.27-1.19   c2.83,4.53,5.19,8.73,4.98,14.33c-0.01,0.3-0.04,0.62-0.23,0.85c-0.27,0.32-0.75,0.33-1.13,0.51c-0.71,0.33-1,1.23-0.86,2   c0.14,0.77,0.6,1.43,1.05,2.07c1.96,2.76,3.91,5.53,5.87,8.29c1.27,1.79,2.65,3.68,4.67,4.53c0.13,0.05,0.26,0.1,0.39,0.14   c1.35,0.42,2.94,0.21,4.02-0.58c0.51-0.37,0.91-0.88,1.1-1.51c-0.42-0.22-0.84-0.43-1.25-0.66c-1.05-0.57-2.05-1.21-2.88-2.05   c-1.64-1.67-2.43-3.98-3.44-6.09c-1.42-3-3.37-5.74-4.58-8.83c-0.94-2.4-1.38-5.15-0.74-7.61   C249.95,160.38,250.22,159.71,250.59,159.07"/>
</g>
</svg>