<?xml version="1.0" encoding="utf-8"?>
<!-- Generator: Adobe Illustrator 23.0.5, SVG Export Plug-In . SVG Version: 6.00 Build 0)  -->
<svg version="1.1" id="Layer_1" xmlns="http://www.w3.org/2000/svg" xmlns:xlink="http://www.w3.org/1999/xlink" x="0px" y="0px"
	 viewBox="0 0 1280 461.12" style="enable-background:new 0 0 1280 461.12;" xml:space="preserve">
<style type="text/css">
	.st0{stroke:#000000;stroke-miterlimit:10;}
</style>
<g>
	<g>
		<path d="M193.04,167.53c1.08-0.48,1.98-1.05,2.73-1.76c1.58-1.48,2.43-3.46,2.51-5.9c0.13-4.37-0.53-8.66-2.46-12.59
			c0-0.03-0.03-0.03-0.03-0.05c-0.93-1.86-2.36-3.49-3.56-5.22C190.48,152.17,191.25,165.09,193.04,167.53"/>
		<path d="M194.94,175.18c0.33,0.05,0.65,0.08,0.95,0.1c3.19,0.25,5.44,1.96,7.28,4.37c0.93,1.2,1.66,2.61,2.71,3.69
			c0.53,0.55,1.2,1,1.96,1.51h1.13c-1.43-3.56-2.53-6.72-4.09-9.66c-1.08-2.06-2.63-4.09-4.52-5.39c-1.66-1.15-3.66-1.23-5.42-0.55
			c-1.56,0.6-2.94,1.83-3.71,3.44C191.88,174.53,193.39,174.98,194.94,175.18"/>
		<path d="M123.14,307.09v-22.5c-0.03,0.03-0.05,0.03-0.1,0.05c-0.38,0.2-0.75,0.43-1.13,0.68c-0.58,0.38-1.18,0.73-1.76,1.08
			c-0.58,0.35-1.15,0.7-1.76,1.03c-1.76,1-3.54,1.98-5.34,2.91c-1,0.53-2.01,1.05-3.01,1.56c-0.35,0.18-0.73,0.35-1.13,0.48
			c-0.55,0.2-1.13,0.35-1.73,0.5c-0.25,0.08-0.5,0.13-0.78,0.2c-0.23,0.05-0.45,0.13-0.65,0.18c-0.23,0.05-0.45,0.13-0.68,0.2
			c0.63,0.2,1.25,0.43,1.86,0.68c0.6,0.25,1.18,0.5,1.76,0.78c1.13,0.58,2.21,1.2,3.24,1.91c0.38,0.25,0.78,0.53,1.15,0.8
			c0.95,0.7,1.86,1.46,2.76,2.26c0.93,0.83,1.83,1.68,2.71,2.58c0.3,0.3,0.58,0.6,0.88,0.9c0.58,0.6,1.15,1.2,1.71,1.83
			C121.79,305.86,122.46,306.51,123.14,307.09"/>
		<path d="M123.14,346.58v-5.8c-1.53-0.15-3.06-0.23-4.59-0.18c-0.48,0-0.95,0.03-1.43,0.05c-0.05,0-0.1,0-0.15,0.03
			c-0.4,0.03-0.8,0.05-1.2,0.1c-0.1,0-0.23,0.03-0.33,0.05c-0.33,0.05-0.65,0.08-0.98,0.15c-0.03,0-0.05,0-0.08,0
			c-0.1,0.03-0.23,0.03-0.33,0.05c-0.43,0.08-0.88,0.15-1.3,0.25c-0.03,0-0.03,0-0.05,0c-0.45,0.1-0.9,0.2-1.35,0.33
			c-0.1,0.03-0.23,0.08-0.33,0.1c-0.33,0.1-0.65,0.2-0.98,0.3c-0.15,0.05-0.28,0.1-0.43,0.15c-0.3,0.1-0.63,0.23-0.93,0.35
			c-0.13,0.05-0.28,0.1-0.4,0.15c-0.43,0.18-0.85,0.38-1.3,0.58c-0.6,0.3-1.2,0.6-1.81,0.93c-1.03,0.58-2.03,1.18-2.99,1.86
			c-1.08,0.75-2.11,1.56-3.11,2.41c-1.66,1.43-3.19,3.01-4.59,4.74c-0.28,0.33-0.5,0.65-0.73,0.98c-0.23,0.33-0.43,0.68-0.63,1
			c-0.53,0.95-0.9,1.93-1.15,2.94c-0.53,2.16-0.45,4.42,0.2,6.77c0.13,0.43,0.25,0.85,0.4,1.28c0.15,0.43,0.3,0.85,0.48,1.28
			c0.05,0.1,0.08,0.23,0.13,0.33c0.03,0.1,0.08,0.2,0.1,0.3c0.15,0.43,0.3,0.85,0.45,1.28c0.13,0.38,0.25,0.78,0.35,1.15
			c0.03,0.1,0.05,0.2,0.08,0.3c0.15,0.58,0.25,1.18,0.3,1.78c0.03,0.25,0.03,0.5,0.03,0.75c0,0.43-0.05,0.83-0.13,1.28
			c-0.05,0.28-0.1,0.58-0.18,0.88c0.23,0.08,0.43,0.18,0.65,0.25c0.35-0.38,0.73-0.75,1.1-1.13c0.15-0.15,0.28-0.3,0.43-0.43
			c0.5-0.53,1-1.05,1.43-1.63c0.3-0.43,0.58-0.88,0.8-1.35c0.03-0.05,0.05-0.1,0.08-0.15c0.13-0.28,0.25-0.53,0.35-0.8
			c0.1-0.28,0.2-0.55,0.28-0.83c0.18-0.55,0.35-1.1,0.55-1.63c0.13-0.35,0.25-0.68,0.4-1c0.35-0.85,0.75-1.68,1.2-2.46
			c1.33-2.36,2.99-4.39,4.94-6.22c1.91-1.81,4.09-3.36,6.45-4.79l0,0c0.5-0.3,1-0.58,1.51-0.85c0.18-0.1,0.35-0.2,0.53-0.3l0,0l0,0
			c0.1-0.05,0.23-0.13,0.33-0.18c0.25-0.15,0.5-0.28,0.78-0.4c0.6-0.33,1.23-0.63,1.86-0.93c0.5-0.23,0.98-0.45,1.48-0.68
			c1.28-0.58,2.61-1.1,3.91-1.61v-1.78"/>
		<path d="M76.58,315.65c4.74,3.61,9.76,6.8,15.73,8.03c1.18,0.25,2.36,0.33,3.49,0.25c1.43-0.08,2.86-0.38,4.21-0.9
			c0.75-0.3,1.48-0.65,2.21-1.08c0.4-0.23,0.75-0.53,1.15-0.8c-0.05-0.1-0.1-0.2-0.15-0.33c-0.73,0.25-1.48,0.43-2.16,0.75
			c-0.23,0.1-0.43,0.18-0.63,0.28c-2.21,0.88-2.94,0.25-3.19-2.48c-0.03-0.18,0-0.35,0-0.4c-0.88-0.3-1.73-0.58-2.58-0.85
			c-1-0.33-2.01-0.68-2.99-1c0.03-0.13,0.05-0.25,0.1-0.38c0.68,0.13,1.35,0.28,2.03,0.35c0.33,0.03,0.65,0.05,0.98,0.08
			c0.43,0.03,0.85,0.03,1.28,0.03c0.7-0.03,1.61,0.18,1.58-0.88c-0.85-0.33-1.68-0.68-2.51-1c-2.71-1.08-5.42-2.16-8.1-3.24
			c0.05-0.15,0.1-0.28,0.15-0.43c2.08,0.58,4.14,1.2,6.22,1.68c0.75,0.18,1.51,0.3,2.26,0.4c0.68,0.1,1.35,0.15,2.06,0.23
			c0.38,0.05,0.93-0.13,1.1-0.4c1-1.61,2.28-2.81,3.74-3.81c1.4-0.98,2.99-1.73,4.64-2.41c-1.56-0.15-3.19-0.05-4.69-0.48
			c-0.13-0.03-0.23-0.08-0.35-0.1c-2.36-0.65-4.74-1.43-6.95-2.48c-3.06-1.43-6.17-2.06-9.48-1.51c-2.08,0.35-4.16,0.73-6.22,1.2
			c-0.3,0.08-0.6,0.15-0.9,0.2c-0.93,0.23-1.88,0.83-2.53,1.51c-0.93,1-0.78,2.33,0.03,3.64c-0.03,0.08,0,0.2-0.05,0.25
			C74.09,311.96,74.12,313.77,76.58,315.65"/>
		<path d="M123.14,323.47v-7.3c-0.08-0.1-0.15-0.23-0.23-0.33c-1.71-2.53-3.91-4.69-6.42-6.07c-0.38-0.2-0.78-0.4-1.2-0.55
			c-1.33-0.5-2.81-0.73-4.29-0.73c-2.23,0.03-4.52,0.58-6.5,1.58c-2.38,1.2-4.34,3.01-5.22,5.29c-0.58,1.51-0.63,3.26-0.8,4.92
			c-0.1,1,0.53,1.23,1.35,0.83c0.45-0.2,0.88-0.45,1.33-0.68c0.3-0.15,0.6-0.3,0.9-0.45c1.58-0.88,3.16-1.18,4.69-0.98
			c0.53,0.08,1.03,0.2,1.56,0.38c0.63,0.23,1.23,0.55,1.86,0.98c1.88,1.3,3.69,2.63,5.49,3.96c2.41,1.78,4.84,3.51,7.45,5.09v-5.95"
			/>
		<path d="M101.82,295.78c-0.63,0-1.25,0.03-1.93,0.1c-2.43,0.35-4.84,1.25-7.15,2.13c-0.55,0.2-1.1,0.48-1.63,0.78
			c-1,0.55-2.01,1.2-3.06,1.63c-1.61,0.65-3.31,1.03-4.99,1.53c0,0.05,0,0.08,0,0.1c1.28-0.15,2.58-0.25,3.86-0.45
			c3.06-0.45,5.92,0.13,8.68,1.53c2.43,1.23,5.37,2.16,8.33,2.73c2.43,0.48,4.92,0.7,7.2,0.65c0.4,0,0.83,0,1.23-0.03
			c-0.08-0.7-0.23-1.38-0.4-2.03c-0.38-1.46-0.98-2.81-1.76-3.99C108.36,297.68,105.45,295.83,101.82,295.78"/>
		<path d="M107.18,330.5c0.25-0.15,0.35-0.75,0.33-1.15c-0.1-1.88-0.58-3.64-1.3-5.32c-0.15-0.35-0.3-0.7-0.48-1.05
			c-0.18-0.38-0.38-0.75-0.58-1.13c-0.43,0.5-0.78,1.03-1.03,1.61c-0.3,0.73-0.48,1.53-0.48,2.28c-0.03,1.83,0.8,3.56,2.33,4.49
			C106.33,330.45,106.91,330.65,107.18,330.5"/>
		<path d="M191.23,341.41c0.93-0.25,1.81-0.58,2.63-1c3.01-1.56,5.85-3.46,8.71-5.32c0.88-0.58,1.73-1.13,2.61-1.68
			c5.07-3.16,10.34-5.44,16.53-4.47c0.3,0.05,0.6,0.08,0.88,0.1c0.25,0.03,0.5,0.03,0.75,0c0.2-0.03,0.4-0.05,0.6-0.13
			c0.2-0.05,0.38-0.13,0.53-0.25c0.18-0.1,0.33-0.23,0.48-0.4c0.15-0.15,0.28-0.35,0.38-0.58c0.18-0.33,0.3-0.73,0.38-1.23
			c-1.51-0.25-2.99-0.5-4.49-0.78c-0.6-0.1-1.2-0.23-1.83-0.33c-3.51-0.63-7.05-1.25-10.61-1.51c-0.43-0.03-0.85-0.05-1.28-0.05
			c-0.1,0-0.2,0-0.33,0c-0.35,0-0.68,0.03-1,0.05c-0.08,0-0.15,0.03-0.23,0.03c-0.85,0.1-1.68,0.28-2.48,0.5
			c-3.36,1-6.22,3.26-8.48,6.42c-1.15,1.61-2.21,3.31-3.11,5.07c-0.25,0.48-0.45,0.9-0.65,1.3v4.24"/>
		<path d="M194.31,313.89c-1,2.11-2.03,4.16-3.09,6.25v8.25c8.61-3.36,12.74-9.01,13.15-18.29c0.08-1.83-0.05-3.91-0.35-6.05
			c-0.18-0.15-0.35-0.28-0.53-0.4c-0.8-0.63-1.61-1.28-2.43-1.88c-0.4-0.3-0.8-0.58-1.2-0.85c-0.43-0.3-0.88-0.63-1.3-0.93
			c-0.68-0.45-1.33-0.88-2.01-1.3c-1.08-0.68-2.16-1.33-3.26-1.96c-0.68-0.38-1.35-0.78-2.03-1.13v20.55
			c1.48-2.94,2.83-5.9,3.81-8.98c0.48-1.53,0.88-3.11,1.13-4.72c0.7-0.28,1.48-0.58,2.26-0.9c-0.15,1.61-0.5,3.19-0.98,4.72
			C196.65,308.87,195.49,311.38,194.31,313.89"/>
		<path d="M69.05,119.79c1.46,1.66,2.89,3.26,4.32,4.89c3.84,4.39,7.58,8.68,11.49,12.82c5.29,5.62,10.91,10.94,16.31,16.48
			c4.14,4.24,8.86,7.65,14.05,10.61c-0.28-0.55-0.58-1.08-0.85-1.63c-1.61-3.19-3.34-6.32-4.79-9.58c-1.13-2.56-1.78-5.32-1.03-8.1
			c0.63-2.31-0.08-4.01-1.61-5.64c-6.02-6.4-12.97-11.16-21.63-13.35c-3.79-0.95-7.53-2.06-11.01-3.81
			c-1.51-0.75-2.96-1.63-4.37-2.66C69.8,119.74,69.65,119.79,69.05,119.79"/>
		<path d="M123.09,138.35c-1.23-0.7-2.51-1.33-3.81-1.93c-2.31-1.05-4.26-0.83-5.92,1c-0.8,0.88-1.48,2.03-1.81,3.16
			c-0.53,1.91-0.68,3.94-1.1,5.9c-0.38,1.73,0.23,2.86,1.61,4.01c1.63,1.38,3.54,2.96,4.21,4.84c1.3,3.66,3.71,5.72,6.77,6.92
			L123.09,138.35"/>
		<path d="M123.14,114.84c-1.46,0.4-3.21,1.51-4.89,2.94c-4.49,3.86-8.4,10.34-4.09,13.47c2.21,1.61,4.62,2.89,7.05,4.11
			c0.55,0.28,1.2,0.38,1.88,0.4L123.14,114.84"/>
		<path d="M123.02,164.47c-3.21-1.35-5.95-4.09-7.9-8.08c-0.6-1.23-1.53-2.31-2.28-3.46c-0.18,0.13-0.35,0.25-0.53,0.38
			c0.63,1.48,1.28,2.96,1.91,4.44c2.91,6.9,4.01,8.73,8.81,9.61L123.02,164.47"/>
		<path d="M90.02,371.07c-0.18-0.58-0.43-1.23-0.7-1.96c-0.15-0.4-0.3-0.83-0.45-1.25H78.74v6.82h11.52
			c0.03-0.08,0.03-0.15,0.05-0.2c0.05-0.2,0.1-0.38,0.13-0.58c0.03-0.2,0.05-0.38,0.05-0.58c0-0.15,0-0.3-0.03-0.45
			c-0.03-0.38-0.13-0.8-0.23-1.23C90.13,371.44,90.07,371.27,90.02,371.07"/>
		<path d="M370.66,267.78c-0.98,7.48-3.26,16.93-6.82,28.3c-3.59,11.39-9.08,22.38-16.56,32.94c-7.48,10.59-17.14,19.69-29,27.32
			c-8,5.17-17.36,8.58-28.1,10.26c-5.17,0.8-10.69,1.23-16.51,1.23h-11.21c0.68-1.46,1.33-2.96,1.96-4.47
			c2.78-6.75,4.87-13.7,6.3-20.82c1.48-7.43,2.23-15.05,2.23-22.88c0-15.98-2.94-29.23-8.81-39.76l0,0c-0.23-0.4-0.45-0.8-0.7-1.23
			c-0.58-1-1.18-1.98-1.81-2.94v-0.03c-1.78-2.81-3.69-5.44-5.67-7.95c-2.21-2.78-4.54-5.42-7-7.8c-2.66-2.61-5.47-4.99-8.43-7.15
			c-8.93-6.5-18.11-11.39-27.52-14.65c-2.16-0.73-4.21-1.46-6.2-2.13c-6.7-2.28-12.42-4.16-17.19-5.69l-8.03-2.53l-48.75-15.33
			l-2.21-0.7c-7.75-2.38-15.43-5.12-23.03-8.18c-0.68-0.28-1.38-0.55-2.06-0.83c-2.41-0.98-4.72-2.06-6.97-3.19
			c-6.6,5.95-14.5,11.04-20.17,12.57c-0.85,1.33-2.18,2.61-4.24,3.36c-0.45,0.18-0.93,0.25-1.4,0.25c-0.93,0-1.83-0.3-2.56-0.9
			c-1.68-1.28-1.76-2.99-1.71-3.66c0.08-1.23,0.2-2.46,0.33-3.66c0.23-2.46,0.45-4.77,0.38-7.02c-0.23-6.8,1.73-12.74,5.85-17.76
			c-3.14-3.39-5.9-7.12-8.25-11.21c-4.21-7.33-6.35-16.18-6.35-26.59c0-13,2.68-23.73,8.03-32.21c1.56-2.43,3.21-4.72,4.99-6.9
			c-3.11-1.46-6.25-3.26-9.43-5.47c-0.05,0.05-0.13,0.1-0.18,0.18c-9.43,9.11-16.73,19.94-21.93,32.46
			c-5.19,12.52-7.8,26.12-7.8,40.74c0,22.45,6.75,40.34,20.25,53.69c12.34,12.22,30.11,22.28,53.24,30.11
			c2.11,0.73,4.26,1.43,6.47,2.11l18.77,5.72v102.43h-24.11c-0.18,0.13-0.35,0.25-0.53,0.38c0,0-0.03,0-0.03,0.03l-4.52,3.31
			c-0.13,0.1-0.28,0.2-0.43,0.28c-0.15,0.08-0.3,0.15-0.45,0.2c-0.05,0.03-0.13,0.05-0.18,0.08c-0.28,0.7-0.63,1.35-1,1.98
			c-0.13,0.2-0.25,0.4-0.4,0.6h82.64c-0.53-0.3-1.08-0.6-1.61-0.9c-3.66-2.06-5.9-5.42-6.12-9.28c-0.2-3.61,0.1-7.07,0.48-10.91
			c0.35-3.51,2.71-5.14,4.97-5.27v-67.69c1.76,0.7,3.56,1.43,5.37,2.23c1.25,0.55,2.56,1.13,3.84,1.71c0.35,0.15,0.68,0.3,1.03,0.48
			c2.89,1.35,5.69,2.86,8.4,4.52c1.76,1.05,3.46,2.18,5.17,3.39c0.48,0.33,0.95,0.68,1.43,1.03c0.85,0.63,1.71,1.28,2.53,1.96
			c0.5,0.4,1,0.8,1.51,1.23c0.73,0.6,1.46,1.18,2.16,1.81c6.5,5.69,11.87,12.62,16.08,20.75c3.41,6.57,5.44,14.2,6.1,22.88
			c0.18,2.08,0.25,4.21,0.25,6.42c0,5.87-0.73,12.17-2.21,18.87c-0.48,2.21-1.05,4.47-1.71,6.77c0,0.03-0.03,0.05-0.03,0.08
			c-2.56,9.06-6.95,17.46-13.22,25.26c-0.15,0.18-0.28,0.35-0.43,0.53c-6.5,7.98-15.28,14.58-26.32,19.77
			c-11.06,5.22-25.19,7.8-42.4,7.8c-6.17,0-12.74-0.18-19.74-0.48c-6.97-0.33-14.3-1.48-21.93-3.41c-7.65-1.96-15.2-5.04-22.68-9.26
			c-7.48-4.21-14.63-10.26-21.45-18.06c-6.82-7.8-13.1-17.74-18.77-29.78c-5.69-12.02-10.31-26.84-13.9-44.41h-5.32v104.94h7.3
			c1.3-3.26,2.83-5.87,4.64-7.83c1.78-1.96,5.12-2.94,9.98-2.94c5.52,0,12.02,1.3,19.49,3.91c7.45,2.61,14.45,4.87,20.95,6.82
			c5.52,1.63,10.56,2.83,15.1,3.66c4.54,0.83,9.08,1.53,13.65,2.21c4.54,0.65,9.41,1.05,14.63,1.23c5.19,0.18,11.21,0.25,18.04,0.25
			c19.17,0,36.38-3.19,51.66-9.53c15.25-6.35,28.27-14.8,38.99-25.39c0,0,0.03-0.03,0.03-0.05c7.7-7.58,14.07-16.01,19.17-25.26
			h117.01V267.8h-5.32"/>
		<path d="M90.02,371.07c0.05,0.2,0.13,0.38,0.18,0.58"/>
		<path d="M103.22,371.79c-0.15,0.08-0.3,0.15-0.45,0.2"/>
		<path d="M132.82,71.52v114.48c1.73,0.58,3.49,1.13,5.22,1.68c0.03,0,26.02,8.18,43.53,13.7h39.46c0.7,0,1.43,0,2.11,0.03
			c5.87,0.13,11.16,0.78,15.88,1.98c3.89,1,7.4,2.36,10.54,4.09c7.3,4.06,13.15,9.51,17.56,16.36c4.39,6.85,7.8,14.65,10.24,23.43
			c2.41,8.63,4.72,17.59,6.95,26.87c0.05,0.15,0.08,0.33,0.13,0.48h5.37V122.82h-5.37c-3.59,14.65-7.23,26.59-10.96,35.88
			c-2.71,6.7-5.82,12.37-9.38,17.03c-1.35,1.81-2.78,3.44-4.29,4.94c-5.37,5.37-11.79,9.03-19.27,10.99
			c-7.33,1.91-16.26,2.89-26.72,2.94h-32.24V87.72c8.88,4.77,16.61,10.79,23.16,18.04c0.7,0.78,1.4,1.58,2.08,2.38
			c0.28,0.33,0.53,0.65,0.8,0.98h0.03c2.23,0.35,4.54,0.7,6.87,1.25c3.26,0.78,5.62,3.31,6.3,6.8c0.03,0.1,0.05,0.23,0.08,0.33
			c0.05,0.2,0.1,0.45,0.18,0.75c1.78-9.28,6.97-16.93,15.55-22.8c0.65-0.45,1.3-0.73,1.91-1c0.1-0.05,0.23-0.1,0.35-0.15V80.12
			h-6.82c-2.61,4.57-4.64,7.4-6.1,8.53c-1.46,1.15-4.32,1.71-8.53,1.71c-3.59,0-7.12-0.6-10.59-1.83c-0.93-0.33-1.88-0.7-2.81-1.1
			c-4.39-1.96-9.36-4.16-14.88-6.6c-2.33-1.03-4.84-2.01-7.55-2.96V34.04h80.91c13.32,0,24.69,1.63,34.12,4.87
			c9.41,3.26,17.56,8.23,24.36,14.9c6.82,6.67,12.67,14.8,17.56,24.39c4.87,9.61,9.41,20.75,13.65,33.44h5.37V27.19H78.71v6.82
			h54.11V71.52"/>
		<path d="M229.84,154.11c0.38,1.35,0.73,2.71,1.05,4.06l0,0c0.8,3.39,1.51,6.8,2.08,10.24h5.85v-10.64
			c-2.53-0.03-4.97-0.83-7.38-2.46C230.84,154.88,230.32,154.48,229.84,154.11"/>
		<path d="M215.61,330.65c-0.63,0.1-1.23,0.25-1.83,0.43c-0.9,0.25-1.81,0.6-2.68,1.03c-0.58,0.28-1.18,0.6-1.76,0.98
			c-0.28,0.18-0.58,0.38-0.88,0.58c-0.85,0.6-1.73,1.2-2.58,1.78c-0.23,0.15-0.43,0.28-0.65,0.43c-0.85,0.55-1.71,1.1-2.58,1.63
			c-3.34,2.06-6.75,4.01-10.11,6.1c3.94,2.89,7.48,4.29,10.66,4.49c1.35,0.08,2.66-0.05,3.91-0.4h0.03c0.23-0.08,0.48-0.13,0.7-0.23
			c0.03,0,0.05-0.03,0.08-0.03c0.23-0.08,0.43-0.15,0.65-0.25c0.03,0,0.05-0.03,0.08-0.03c0.23-0.1,0.45-0.2,0.68-0.3
			c0,0,0.03,0,0.03-0.03c0.7-0.35,1.38-0.75,2.06-1.2c0.05-0.03,0.1-0.08,0.15-0.1c0.18-0.13,0.33-0.25,0.5-0.38
			c0.08-0.05,0.13-0.1,0.2-0.15c0.15-0.13,0.3-0.23,0.43-0.35c0.08-0.05,0.15-0.13,0.23-0.18c0.15-0.13,0.28-0.25,0.43-0.38
			c0.08-0.08,0.15-0.13,0.23-0.2c0.15-0.13,0.3-0.28,0.43-0.4c0.08-0.05,0.13-0.13,0.2-0.18c0.2-0.2,0.4-0.4,0.6-0.63
			c0.78-0.83,1.53-1.68,2.23-2.56c0.23-0.3,0.45-0.6,0.68-0.9c0.48-0.68,0.95-1.35,1.43-2.06c1.35-1.98,2.71-4.01,4.14-6.17
			c0.08-0.1,0.13-0.2,0.2-0.3c-0.1-0.03-0.2-0.03-0.3-0.05C220.51,330.3,218,330.25,215.61,330.65"/>
		<path d="M181.55,352.38c-0.18,0.05-0.33,0.13-0.48,0.28c-0.25,0.25-0.43,0.7-0.5,1.35c-0.35,3.41-0.65,6.87-0.45,10.29
			c0.15,2.56,1.71,4.67,4.06,5.97c2.63,1.48,5.27,2.94,7.98,4.42c1.46,0.83,2.96,1.63,4.47,2.48c0.73,0.4,1.43,0.8,2.16,1.2
			c0.08-1.28,0.08-2.51-0.05-3.69c-0.23-2.53-0.85-4.77-1.78-6.82c-1.96-4.32-5.17-7.78-8.71-11.09c-1.46-1.38-3.19-2.46-4.79-3.69
			C182.77,352.53,182.07,352.22,181.55,352.38"/>
		<path d="M186.64,350.37c-0.7,0.1-1.33,0.3-1.88,0.6c2.13,2.23,4.32,4.49,6.47,6.75c0.15,0.15,0.28,0.3,0.43,0.45
			c0.9,0.93,1.81,1.88,2.71,2.83c1.98,2.08,3.41,4.37,4.42,6.85c0.85,2.13,1.38,4.42,1.66,6.82c0.03,0.3,0.05,0.6,0.08,0.9
			c0.2,2.61,0.35,3.21,2.23,3.66c0.58,0.13,1.33,0.25,2.31,0.4c-0.1-1.86-0.13-3.71-0.15-5.54c-0.05-2.08-0.1-4.19-0.28-6.25
			c-0.28-3.16-0.85-6.3-2.16-9.33c-0.05-0.13-0.1-0.23-0.18-0.35c-1.73-3.49-6.65-6.4-11.06-7.45
			C189.55,350.29,187.97,350.17,186.64,350.37"/>
		<path d="M116.29,185.27c2.18,0.2,4.39,0.48,6.67,0.75l0.03-6.35c-0.98-1.78-2.61-2.83-4.59-3.61
			c-11.92-4.67-22.98-3.74-33.24,3.16c-0.95,0.63-1.91,1.3-2.83,2.06c-1.73,1.35-3.21,2.83-4.44,4.39
			c-3.26,4.09-4.87,8.91-4.67,14.75c0.03,0.75,0.03,1.51,0,2.26c-0.08,1.98-0.28,3.96-0.45,5.95c-0.1,0.98-0.18,1.96-0.25,2.94
			c0,0.08,0.15,0.15,0.25,0.23c0.43-0.15,0.8-0.38,1.1-0.6c1.48-1.03,1.96-2.71,2.21-4.59c0.93-6.65,3.84-11.87,8.43-15.45
			c2.63-2.06,5.82-3.59,9.51-4.54c0.25-0.08,0.53-0.13,0.78-0.18c3.54-0.85,7.07-1.3,10.64-1.48
			C109.02,184.79,112.65,184.91,116.29,185.27"/>
		<path d="M86.41,192.49c-6.25,4.01-10.64,10.21-9.61,15.93c0.98-0.23,2.08-0.6,3.24-1.1c4.39-1.88,9.83-5.54,14.68-9.73
			c2.66-2.31,5.12-4.77,7.12-7.18c0.35-0.43,0.7-0.85,1.03-1.28c0.18-0.23,0.38-0.48,0.53-0.7c-1.81-0.33-3.66-0.35-5.54-0.15
			C93.89,188.73,89.85,190.28,86.41,192.49"/>
		<path d="M66.69,85.39c0.53,0.48,1.05,0.95,1.4,1.53c0.18,0.3,0.38,0.58,0.58,0.8c1.23,1.4,2.73,1.23,4.59,0.45
			c3.66-1.53,7.43-2.46,11.29-2.86c2.61-0.28,5.27-0.33,7.98-0.18c0.18,0,0.33,0,0.48,0.03c1.38,0.1,2.11-0.28,2.18-1.81
			c0-0.05,0-0.08,0-0.1c-0.73-0.25-1.46-0.53-2.18-0.78c-0.55-0.2-1.1-0.4-1.66-0.63c-3.76-1.46-7.4-3.11-10.71-5.44
			c-0.55-0.4-1.1-0.8-1.66-1.23c0.73,0.3,1.46,0.63,2.18,0.95c1.61,0.7,3.21,1.4,4.84,2.01c2.56,0.93,5.19,1.76,7.83,2.48
			c0.05,0.03,0.13,0.03,0.18,0.05c0.1,0.03,0.18,0.05,0.28,0.08c1.25,0.35,1.86,0.48,2.38,0.18c0.48-0.25,0.9-0.8,1.68-1.81
			c-0.13-0.05-0.25-0.08-0.38-0.13c-0.03,0-0.05-0.03-0.08-0.03c-0.75-0.25-1.48-0.53-2.21-0.8c-0.55-0.2-1.08-0.4-1.61-0.6
			c-0.08-0.03-0.13-0.05-0.2-0.08c-2.61-1.08-4.77-2.58-6.55-4.44c-2.23-2.31-3.91-5.12-5.19-8.3c-1.15-2.89-1.18-3.04-4.16-2.73
			c-0.08,0-0.15,0.03-0.23,0.03c-1.88,0.2-3.79,0.55-5.62,1.05c-8.91,2.38-13.22,14.45-5.85,21.95
			C66.42,85.14,66.57,85.27,66.69,85.39"/>
		<path d="M89.25,43.92c-0.2-0.08-0.45-0.15-0.68-0.23c-0.9-0.25-1.91-0.3-2.78-0.13c-0.15,0.03-0.28,0.08-0.43,0.13
			c-1.28,0.45-1.96,1.71-2.11,3.34c-0.08,0.08-0.13,0.18-0.23,0.2c-3.51,0.88-4.74,2.61-3.74,6.1c0.45,1.56,0.93,3.11,1.48,4.62
			c1.78,5.07,4.11,9.86,7.8,13.95c0.13,0.13,0.25,0.25,0.38,0.38c1.08,1.13,2.28,2.08,3.59,2.81c1.46,0.85,3.04,1.43,4.72,1.81
			c0.63,0.13,1.25,0.25,1.91,0.3c0.25,0.03,0.53,0.03,0.78,0.05c0.28,0,0.58,0,0.85,0c0.03-0.13,0.05-0.28,0.08-0.4
			c-0.18-0.05-0.35-0.13-0.53-0.18c-0.58-0.2-1.15-0.4-1.76-0.55c-0.1-0.03-0.18-0.05-0.28-0.08c-2.31-0.48-3.26-1.13-3.09-2.41
			c0.1-0.63,0.43-1.38,1.03-2.33c0.1-0.18,0.25-0.33,0.28-0.38c-0.33-0.48-0.65-0.93-0.95-1.38c-0.15-0.23-0.3-0.43-0.45-0.65
			c-0.85-1.23-1.71-2.43-2.53-3.64c0.13-0.1,0.23-0.2,0.35-0.3c0.55,0.6,1.08,1.23,1.68,1.76c0.45,0.43,0.93,0.8,1.43,1.18
			c0.2,0.15,0.4,0.33,0.63,0.48c0.23,0.15,0.48,0.35,0.7,0.5c0.45,0.3,0.93,0.43,1.4-0.25c-0.05-0.08-0.1-0.15-0.13-0.2
			c-0.4-0.63-0.78-1.25-1.15-1.88c-1.93-3.14-3.86-6.22-5.77-9.33c0.15-0.1,0.3-0.2,0.45-0.3c1.56,1.98,3.06,4.01,4.72,5.95
			c0.73,0.85,1.56,1.66,2.38,2.46c0.4,0.4,0.83,0.78,1.25,1.15c0.33,0.3,0.98,0.53,1.33,0.4c2.41-0.93,4.79-1.13,7.18-0.93
			c1.68,0.15,3.36,0.48,5.07,0.9c-1.2-1.08-2.53-2.03-3.61-3.19c-0.15-0.18-0.33-0.35-0.48-0.53c-1.88-2.38-3.66-4.87-5.09-7.53
			c-1.91-3.49-4.39-6.25-7.9-8.05c-1.98-1.03-3.99-2.03-6.05-2.94C90.38,44.37,89.82,44.15,89.25,43.92"/>
		<path d="M92.88,100.29c-3.21,3.04-6.7,5.8-10.19,8.55c-0.28,0.23-0.58,0.45-0.85,0.68c-1.46,1.15-1.88,1.91-1,2.61
			c0.28,0.2,0.65,0.4,1.15,0.6c2.28,0.9,4.69,1.63,7.12,1.88c4.62,0.48,9.18-0.28,13.1-1.51c3.31-1.13,6.02-2.28,8.15-4.42
			c1.3-1.3,2.06-2.73,2.23-4.32c0.1-1,0-2.08-0.33-3.21c-0.83-2.78-1.61-5.59-2.38-8.4c-0.55-2.03-1.13-4.04-1.71-6.05
			c-0.33-1.08-0.68-2.16-1.08-3.21c-0.38-1.08-0.8-2.13-1.23-3.19c-0.08-0.2-0.15-0.38-0.23-0.58c-0.18-0.43-0.65-0.73-1.1-1.03
			c-0.15-0.1-0.3-0.2-0.43-0.3c-0.38,0.53-0.88,1-1.08,1.58c-0.08,0.2-0.13,0.4-0.2,0.63c-0.03,0.05-0.05,0.13-0.05,0.18
			c-0.35,1.1-0.68,2.26-0.9,3.39c-0.1,0.48-0.23,0.93-0.33,1.4c-0.38,1.58-0.88,3.09-1.48,4.52c-0.38,0.9-0.8,1.78-1.25,2.63
			C97.28,95.5,95.29,98.03,92.88,100.29"/>
		<path d="M116.24,70.24c-0.43-0.3-0.88-0.55-1.33-0.8c-1.28-0.68-2.66-1.2-4.04-1.56c-3.49-0.88-7.12-0.65-9.86,1.1
			c-1.61,1.03-2.86,2.63-4.19,4.09c-0.38,0.43-0.48,0.78-0.35,1.08c0.13,0.33,0.5,0.55,1.08,0.65c0.48,0.1,0.98,0.18,1.46,0.28
			c0.48,0.08,0.95,0.15,1.46,0.23c0.13,0.03,0.23,0.05,0.35,0.08c0.2,0.03,0.4,0.08,0.6,0.13c1.15,0.25,2.16,0.68,3.06,1.28
			c0.15,0.1,0.33,0.2,0.48,0.33c0.33,0.25,0.63,0.53,0.93,0.85c0.73,0.78,1.3,1.73,1.76,2.86c0.08,0.18,0.15,0.35,0.23,0.55
			c1.25,3.64,2.33,7.33,3.54,10.96c0.8,2.48,1.68,4.94,2.68,7.35c0.2,0.48,0.53,0.9,0.83,1.3c0.53,0.7,1.08,0.93,1.66,0.68
			c0.25-0.1,0.5-0.3,0.75-0.58c5.75-6.37,7.45-17.51,3.86-25.26c-0.33-0.7-0.73-1.35-1.2-1.98
			C118.95,72.37,117.7,71.19,116.24,70.24"/>
		<path d="M95.72,89.91c-0.2-0.28-0.45-0.53-0.5-0.83c0-0.03,0-0.05-0.03-0.08c-0.03-0.15-0.05-0.3-0.1-0.43
			c-0.38-1.3-1.35-1.58-2.51-1.68c-0.25-0.03-0.5-0.05-0.75-0.05c-3.76-0.28-7.45,0-11.09,0.73c-1.58,0.3-3.14,0.7-4.72,1.18
			c-2.56,1.2-5.12,2.38-7.65,3.64c-0.63,0.3-1.23,0.6-1.86,0.93c-2.28,1.18-2.38,2.28-0.3,3.74c0.28,0.2,0.58,0.38,0.85,0.58
			c2.91,1.96,5.95,3.69,9.16,5.09c1.51,0.65,3.01,1.25,4.59,1.73c0.25,0.08,0.48,0.13,0.7,0.18c2.38,0.55,4.57,0.08,6.52-1.63
			c3.39-2.99,6.3-6.32,8.03-10.56c0.03-0.03,0.03-0.08,0.05-0.1c0.23-0.53,0-1.3-0.18-1.93C95.95,90.21,95.85,90.06,95.72,89.91"/>
		<path d="M115.14,50.95c-2.56-1.38-5.44-2.21-8.23-2.99c-1.05-0.3-2.13-0.43-3.24-0.53c-0.98-0.1-1.93-0.23-2.89-0.45
			c-1.98-0.5-3.86-1.35-5.8-2.03c-0.03,0.03-0.05,0.08-0.08,0.1c1.33,0.75,2.61,1.56,3.96,2.28c3.21,1.71,5.49,4.26,7.15,7.5
			c1.66,3.26,4.14,6.57,6.95,9.46c1.53,1.56,3.14,2.99,4.77,4.19c0.58,0.45,1.18,0.85,1.76,1.23c0.28-0.5,0.53-0.98,0.75-1.48
			C123.12,61.83,121.86,54.58,115.14,50.95"/>
		<path d="M96.82,87.35c0.03,0.1,0.05,0.2,0.1,0.28c0,0.03,0,0.03,0.03,0.05c0.05,0.1,0.1,0.23,0.18,0.35
			c0.2,0.35,0.5,0.7,0.78,0.73c0.33,0.05,0.85-0.48,1.1-0.85c0.05-0.05,0.08-0.13,0.1-0.18c0.3-0.48,0.58-0.98,0.83-1.48
			c0.73-1.48,1.25-3.04,1.63-4.67c0.03-0.13,0.05-0.28,0.08-0.4c0.1-0.43,0.18-0.88,0.25-1.33c0.05-0.23,0.08-0.48,0.1-0.7
			c-0.38,0.08-0.73,0.2-1.05,0.33c-0.95,0.38-1.81,0.93-2.48,1.63c-0.03,0.03-0.03,0.03-0.05,0.05c-0.83,0.85-1.4,1.88-1.68,2.99
			C96.47,85.22,96.47,86.32,96.82,87.35"/>
		<path d="M119.03,352.55c-0.75,0.33-1.51,0.68-2.23,1.05c-0.65,0.33-1.28,0.68-1.93,1.03l0,0c-0.15,0.1-0.33,0.18-0.5,0.25
			c-1.33,0.75-2.61,1.58-3.84,2.46c-0.38,0.28-0.73,0.55-1.08,0.83c-0.38,0.28-0.73,0.58-1.08,0.88c-0.8,0.68-1.58,1.38-2.31,2.11
			c-0.35,0.35-0.7,0.73-1.03,1.1c-1,1.13-1.96,2.33-2.78,3.64c-0.28,0.43-0.55,0.88-0.83,1.33c-0.03,0.05-0.05,0.1-0.08,0.13
			c-0.08,0.18-0.18,0.33-0.25,0.5c-0.03,0.05-0.05,0.1-0.08,0.18c0.1,0.1,0.18,0.18,0.28,0.28c0.2-0.15,0.4-0.3,0.6-0.45
			c1.3-0.95,2.58-1.91,3.89-2.86c0,0,0.03,0,0.03-0.03c0.53-0.4,1.05-0.78,1.61-1.13c0.08-0.05,0.18-0.13,0.25-0.18
			c0.45-0.3,0.9-0.6,1.35-0.9c0.08-0.05,0.13-0.08,0.2-0.13c0.48-0.3,0.95-0.6,1.46-0.88c0.03-0.03,0.05-0.03,0.1-0.05
			c0.53-0.3,1.05-0.6,1.58-0.9l0,0c0.83-0.45,1.66-0.85,2.51-1.25c1.1-0.5,2.21-0.98,3.31-1.4c0.38-0.15,0.73-0.28,1.1-0.4
			c1.25-0.43,2.56-0.83,3.84-1.15v-5.72c-1.3,0.48-2.61,1-3.91,1.56l0,0C119.18,352.48,119.1,352.5,119.03,352.55"/>
		<path d="M224.9,141.99c0-0.03,0.03-0.03,0.03-0.05c0.15-0.3,0.3-0.58,0.45-0.83c0.05-0.1,0.1-0.2,0.18-0.28
			c1.13-1.78,2.68-2.94,4.69-3.61c0.55-0.2,1.13-0.35,1.73-0.48c1.88-0.38,3.91-1.53,5.22-2.94c0.3-0.3,0.58-0.63,0.85-0.98
			c0.25-0.3,0.53-0.63,0.78-0.95c4.01-5.22,6.9-12.54,4.89-18.77c-1.53-4.69-1.23-10.46-2.66-15.48c-1.03,0.5-1.68,0.7-2.23,1.08
			c0,0,0,0-0.03,0c-10.86,7.45-15.45,17.89-14.33,30.86c0.03,0.15,0.03,0.33,0.05,0.48c0.23,2.68,0.3,5.29-0.13,7.85
			c-0.25,1.48-0.65,2.94-1.3,4.39c-0.03,0.05-0.05,0.13-0.05,0.2c-0.08,0.38-0.03,0.9-0.08,1.93
			C223.97,143.19,224.6,142.67,224.9,141.99"/>
		<path d="M244.87,152.02c1.15-0.58,2.31-1.23,3.64-1.51c1.18-0.25,2.46-0.18,3.99,0.5c-1.46-3.06-2.71-5.77-3.99-8.38
			c-0.28-0.53-0.53-1.08-0.8-1.61c-1.48-2.83-3.76-4.57-7.15-4.42c-0.18,0-0.33,0.03-0.48,0.05c-0.43,0.03-0.83,0.08-1.23,0.15
			c-2.56,0.45-4.67,1.71-6.2,3.94c-0.18,0.28-0.38,0.53-0.53,0.83c-0.5,0.88-0.88,1.86-1.43,3.09c-1.03,0.28-2.18,0.65-3.36,0.9
			c-0.03,0-0.05,0-0.08,0.03c-0.1,0.03-0.23,0.05-0.33,0.08c-1.13,0.23-2.18,0.5-3.19,0.88c-0.9,0.35-1.78,0.8-2.61,1.38
			c-0.03,0.03-0.05,0.05-0.08,0.05c-0.65,0.45-1.3,0.98-1.88,1.61c-0.2,0.2-0.38,0.38-0.6,0.58c-0.3,0.28-0.63,0.55-0.98,0.8
			c-1.35,1.05-2.91,1.96-4.32,2.96c-0.38,0.5-0.75,0.95-1.18,1.4c-1.61,1.73-3.54,3.09-5.57,4.39c-2.18,1.38-4.47,2.66-6.6,4.21
			c1.66,1.43,2.73,0.63,3.74-0.03c1.3-0.85,2.61-1.71,3.91-2.58c1.56-1.03,3.09-2.06,4.62-3.14c2.43-1.73,4.79-3.59,7.2-5.34
			c1.53-1.13,3.09-2.23,4.69-3.26c1.71-1.1,2.96-1.38,4.06-1.2c1.88,0.3,3.24,2.03,5.54,3.59c1.81,1.2,3.46,1.73,5.12,1.78
			C240.78,153.76,242.71,153.13,244.87,152.02"/>
		<path d="M216.72,146.33c0.2,0.1,0.43,0.2,0.63,0.28c0.6,0.25,1.23,0.48,1.91,0.68c0.08-0.28,0.18-0.53,0.25-0.8
			c0.13-0.38,0.23-0.73,0.35-1.1c0.2-0.58,0.38-1.18,0.58-1.76c0.6-1.88,1.2-3.79,1.56-5.75c0.33-1.78,0.23-4.26-0.78-5.54
			c-0.23-0.28-0.43-0.58-0.63-0.85c-1.78-2.56-2.78-5.27-3.21-8.2c-0.18-1.2-0.25-2.43-0.25-3.71c0-0.55-0.2-1.13-0.33-1.68
			c-0.35-1.86-1.53-3.24-3.26-3.64c-0.78-0.18-1.56-0.35-2.33-0.48c-1.93-0.35-3.86-0.63-5.77-0.95c-0.38-0.05-0.78-0.13-1.18-0.18
			c-0.95,1.96-1.53,3.86-1.71,5.72c-0.2,2.06,0.03,4.09,0.7,6.05c1.73,4.94,3.94,9.71,6.02,14.53
			C210.82,142.34,213.26,144.75,216.72,146.33"/>
		<path d="M201.44,112.94c-0.48-0.2-0.93-0.43-1.4-0.68c-1.46-0.7-2.96-1.48-4.47-2.16c-1.4-0.63-2.83-1.2-4.24-1.56
			c3.69,5.9,6.75,11.34,6.47,18.62c-0.03,0.38-0.05,0.8-0.3,1.1c-0.35,0.4-0.98,0.43-1.48,0.65c-0.93,0.43-1.3,1.61-1.13,2.61
			c0.18,1,0.78,1.86,1.38,2.68c2.53,3.59,5.09,7.18,7.63,10.76c1.66,2.33,3.44,4.77,6.07,5.87c0.18,0.08,0.33,0.13,0.5,0.18
			c1.76,0.55,3.81,0.28,5.22-0.75c0.65-0.48,1.18-1.13,1.43-1.96c-0.55-0.28-1.08-0.55-1.63-0.85c-1.35-0.75-2.66-1.58-3.74-2.66
			c-2.13-2.18-3.16-5.17-4.47-7.9c-1.86-3.89-4.37-7.45-5.95-11.47c-1.23-3.11-1.81-6.7-0.98-9.88
			C200.61,114.64,200.96,113.77,201.44,112.94"/>
	</g>
	<g>
		<g>
			<path class="st0" d="M545.34,205.41c0,19.47-15.83,32.99-41.9,32.99c-13.7,0-24.74-6.92-32.34-6.92c-4.29,0-6.27,3.14-7.43,5.95
				h-0.83v-36.78h0.83c4.47,18.46,16.16,36.95,39.76,36.95c17.99,0,29.53-8.58,29.53-24.74c0-16.16-16.16-20.95-35.95-29.7
				c-22.1-9.56-32.01-17.31-32.01-33.99c0-16.98,15.83-29.53,35.95-29.53c14.35,0,19.47,6.77,25.89,6.77c4.29,0,5.27-1.66,6.6-4.47
				h0.83v29.03h-0.65c-4.62-18.46-15-30.51-32.66-30.51c-16.98,0-24.91,9.73-24.91,19.97c0,9.08,4.29,17.31,27.87,26.39
				C537.92,180.17,545.34,189.91,545.34,205.41z"/>
			<path class="st0" d="M704.7,235.94v0.83h-45.68v-0.83h14.85l-14.35-38.76h-41.6l-14.17,38.76h12.22v0.83h-23.58v-0.83h10.39
				l42.72-115.81h1.15l43.05,115.81H704.7z M659.17,196.35l-20.62-55.09l-20.3,55.09H659.17z"/>
			<path class="st0" d="M841.46,201.3v35.47h-90.57v-0.83h15V122.12h-15v-0.83h45.68v0.83h-14.85v113.82h29.7
				c19.14,0,28.2-15.83,29.2-34.65L841.46,201.3L841.46,201.3z"/>
			<path class="st0" d="M984.63,201.3v35.47h-90.39v-0.83h14.85V122.12h-14.85v-0.83h84.14v29.03h-0.83
				c-1.48-16.83-10.06-28.2-29.2-28.2h-23.43v53.29h9.88c16.98,0,22.75-8.91,23.58-23.58h0.83v47.84h-0.83
				c-0.83-14.53-6.6-23.43-23.58-23.43h-9.88v59.71h29.85c19.14,0,28.05-15.83,29.03-34.65L984.63,201.3L984.63,201.3z"/>
			<path class="st0" d="M1142.81,122.12v113.82h15v0.83h-45.86v-0.83h15v-58.08h-57.25v58.08h15v0.83h-45.69v-0.83h14.85V122.12
				h-14.85v-0.83h45.69v0.83h-15v54.94h57.25v-54.94h-15v-0.83h45.86v0.83H1142.81z"/>
			<path class="st0" d="M1239.8,122.12v113.82h14.85v0.83h-45.69v-0.83h15V122.12h-15v-0.83h45.69v0.83H1239.8z"/>
		</g>
		<g>
			<g>
				<path class="st0" d="M504.33,325.43v16.23h-41.37v-0.38h6.8V289.2h-6.8v-0.38h38.51v13.3h-0.38
					c-0.68-7.7-4.62-12.92-13.37-12.92H477v24.39h4.54c7.78,0,10.41-4.06,10.79-10.79h0.38v21.9h-0.38
					c-0.38-6.65-3.01-10.71-10.79-10.71H477v27.32h13.67c8.76,0,12.84-7.25,13.3-15.86h0.35V325.43z"/>
				<path class="st0" d="M659.89,289.18h-4.77l-19.54,52.94h-0.53l-19.72-52.94h-6.87v-0.38h20.92v0.38h-6.8l16.16,43.25
					l16.01-43.25h-5.67v-0.38h10.79v0.38H659.89z"/>
				<path class="st0" d="M803.92,325.43v16.23h-41.37v-0.38h6.8V289.2h-6.8v-0.38h38.51v13.3h-0.38
					c-0.68-7.7-4.62-12.92-13.37-12.92H776.6v24.39h4.54c7.78,0,10.41-4.06,10.79-10.79h0.38v21.9h-0.38
					c-0.38-6.65-3.01-10.71-10.79-10.71h-4.54v27.32h13.67c8.76,0,12.84-7.25,13.3-15.86h0.35V325.43z"/>
				<path class="st0" d="M960.62,288.8v0.38h-6.87v53.01H953l-35.47-50.5v49.6h6.8v0.38h-13.97v-0.38h6.8v-50.05l-1.43-2.03h-5.37
					v-0.38h13.3l29.75,41.6V289.2h-6.72v-0.38h13.95V288.8z"/>
				<path class="st0" d="M1111.15,288.8v14.05h-0.38c-0.9-7.78-5.75-13.67-14.8-13.67h-4.01v52.08h6.87v0.38h-21v-0.38h6.87v-52.08
					h-4.01c-9.06,0-13.82,5.9-14.8,13.67h-0.38V288.8H1111.15z"/>
				<path class="st0" d="M1254.58,327.31c0,8.91-7.25,15.1-19.17,15.1c-6.27,0-11.31-3.16-14.8-3.16c-1.96,0-2.86,1.43-3.39,2.71
					h-0.38v-16.83h0.38c2.03,8.45,7.4,16.91,18.19,16.91c8.23,0,13.52-3.91,13.52-11.31s-7.4-9.58-16.46-13.6
					c-10.11-4.39-14.65-7.93-14.65-15.55c0-7.78,7.25-13.52,16.46-13.52c6.57,0,8.91,3.09,11.87,3.09c1.96,0,2.41-0.75,3.01-2.03
					h0.38v13.3h-0.3c-2.11-8.45-6.87-13.97-14.95-13.97c-7.78,0-11.39,4.47-11.39,9.13c0,4.16,1.96,7.93,12.77,12.09
					C1251.16,315.77,1254.58,320.21,1254.58,327.31z"/>
			</g>
		</g>
	</g>
</g>
</svg>
